<svg width="1920" height="724" viewBox="0 0 1920 724" fill="none" xmlns="http://www.w3.org/2000/svg">
<g clip-path="url(#clip0_184_335)">
<path d="M544.947 126.343C544.993 109.969 537.838 94.2701 524.629 84.5934C504.867 70.1153 481.063 55.2309 453.077 41.9492C401.109 17.2076 357.136 8.87997 341.388 6.22478C318.735 2.36269 295.719 0.431641 272.461 0.431641H272.34C248.96 0.431641 225.944 2.36269 203.17 6.22478C183.061 9.60411 140.784 18.2938 91.6027 41.9492C63.041 55.6046 39.1269 70.9965 19.7188 85.6366C6.91847 95.2924 0.0228271 110.683 0.0228271 126.717V349.227V389.9V408.486V477.558C0.0228271 486.315 2.79036 494.866 8.10413 501.827C35.1703 537.284 72.7415 579.829 123.341 621.384C167.668 657.812 215.026 684.387 253.509 703.625C269.274 711.507 287.988 710.968 302.98 701.699C337.752 680.201 373.872 653.155 415.403 619.211C464.551 578.969 504.007 538.529 535.02 502.523C541.303 495.228 544.656 485.885 544.656 476.257C544.656 468.672 544.656 461.088 544.656 453.504V360.21V332.089V229.14C544.753 194.725 544.85 160.542 544.947 126.343ZM48.8412 372.4C48.8412 372.4 48.2355 372.641 47.7509 372.882C44.8437 374.089 30.6706 381.572 14.6804 395.089V380.606C24.3714 375.296 34.9104 371.072 46.055 368.417C46.4184 368.296 46.7818 368.175 47.2664 368.175C55.5037 366.244 64.1045 365.158 72.9475 365.037C73.1898 365.037 73.4321 365.037 73.6743 365.037C64.9524 366.727 56.7151 369.141 48.8412 372.4ZM273.793 695.85C273.793 695.367 273.672 695.005 273.672 694.522C273.793 694.884 273.914 695.246 274.036 695.609L273.793 695.85ZM530.12 327.865C529.878 327.503 529.757 327.141 529.514 326.779C529.272 326.416 529.03 326.054 528.787 325.692C527.091 322.917 525.274 320.141 523.336 317.485C523.094 317.123 522.73 316.641 522.488 316.279C510.011 299.02 494.021 284.537 475.487 273.675C496.444 282.847 515.099 296.365 530.12 313.141V327.865ZM530.12 219.002C529.514 218.64 528.909 218.278 528.303 217.916C524.184 215.623 519.702 213.812 514.978 212.485C513.645 212.123 512.192 211.761 510.859 211.399C510.253 211.278 509.769 211.157 509.163 211.036C506.135 210.433 502.985 210.192 499.714 210.071C497.049 210.071 494.506 210.071 491.962 210.312C491.477 210.312 490.992 210.433 490.387 210.433C484.936 211.036 479.727 212.485 474.76 214.416C474.276 214.536 473.791 214.778 473.307 215.019H473.185C472.701 215.261 472.337 215.381 471.853 215.623C469.915 216.467 468.098 217.433 466.402 218.519C467.734 216.709 469.067 215.14 470.641 213.45C470.884 213.088 471.247 212.847 471.611 212.485C471.853 212.243 472.095 212.002 472.337 211.64C472.822 211.157 473.306 210.795 473.67 210.312C477.183 207.054 481.059 204.278 485.178 201.864C485.42 201.743 485.541 201.623 485.784 201.502C486.147 201.261 486.51 201.019 486.874 200.898C486.753 200.536 486.632 200.054 486.51 199.571C486.147 198.485 485.905 197.278 485.784 196.071C485.663 195.467 485.541 194.985 485.541 194.381C485.42 192.933 485.299 191.605 485.299 190.157C485.42 184.726 486.995 179.536 489.539 175.191C490.871 172.898 492.567 170.726 494.506 168.795C494.748 168.553 494.99 168.312 495.232 168.071C497.897 165.657 501.41 164.209 505.287 164.329C510.253 164.45 514.493 167.105 517.037 170.847C517.037 170.847 517.037 170.847 517.037 170.967C517.643 171.933 518.127 173.019 518.491 174.105C518.491 174.105 518.491 174.105 518.491 174.226C519.339 176.278 520.066 178.45 520.429 180.743C520.792 182.795 520.914 184.847 520.914 187.019C520.914 188.829 520.671 190.64 520.308 192.45C520.308 192.571 520.308 192.571 520.308 192.691C520.187 193.174 520.187 193.536 519.944 194.019C519.944 194.14 519.823 194.381 519.823 194.502C520.066 194.381 520.187 194.26 520.429 194.019C520.792 193.778 521.156 193.416 521.519 193.174C521.64 193.054 521.761 192.933 521.883 192.812C525.274 189.916 528.061 186.295 529.999 182.191V219.002H530.12ZM530.12 155.881C525.153 145.502 514.736 138.139 502.38 137.777C499.957 137.777 497.655 137.898 495.475 138.381C491.598 139.105 488.085 140.553 484.936 142.605C484.815 142.726 484.693 142.846 484.451 142.846C483.845 143.208 483.119 143.691 482.513 144.174C482.392 144.295 482.271 144.415 482.15 144.415C474.639 149.967 468.34 157.088 463.979 165.415C462.525 168.191 461.193 171.088 460.102 174.105C459.497 175.795 459.012 177.485 458.528 179.174C458.528 179.174 458.528 179.174 458.407 179.053C453.561 174.347 445.566 170.967 431.999 171.933C431.514 170.605 431.151 169.157 431.272 167.709C431.393 161.795 436.36 157.088 442.295 157.329C446.293 157.45 449.685 159.622 451.381 162.881C451.744 163.726 452.107 164.45 452.35 165.295C452.471 165.778 452.592 166.14 452.713 166.622C452.955 165.657 453.077 164.571 453.077 163.605C453.198 157.329 450.412 151.657 445.929 147.915C442.78 145.26 438.661 143.57 434.179 143.45C434.058 143.45 433.937 143.45 433.816 143.45C432.362 143.45 431.03 143.57 429.697 143.812C417.462 145.743 408.013 156.122 407.65 168.795C407.65 170.967 407.771 173.14 408.256 175.191L323.702 240.847L323.096 241.33L322.854 241.45C322.369 241.933 321.885 242.537 321.643 243.261C321.521 243.623 321.279 244.106 321.279 244.588C321.279 244.83 321.158 245.071 321.158 245.312V245.433L320.068 260.278L313.526 265.347L311.104 267.157L302.139 274.037L299.838 275.847L269.917 298.899L268.706 299.865L262.649 304.572L262.406 304.692C261.195 305.658 260.226 306.865 259.741 308.434C259.499 309.037 259.378 309.641 259.257 310.365C259.257 310.606 259.257 310.847 259.257 311.089C259.257 312.537 259.62 313.865 260.226 315.072L265.192 325.33L265.919 326.779C268.463 331.848 270.886 336.917 273.43 341.865L273.672 342.227C274.641 344.037 276.337 346.693 278.76 349.468C289.783 362.262 305.531 365.279 317.887 367.21C357.62 373.727 377.487 376.865 393.719 373.124C403.531 370.831 436.117 363.227 444.355 340.417C444.597 339.692 444.718 339.21 444.96 338.727C446.414 334.02 447.262 328.951 447.383 323.761C447.504 320.503 447.262 317.365 446.777 314.227C452.713 321.589 457.922 329.675 462.162 338.123C462.404 338.727 462.768 339.21 463.01 339.813C471.974 358.399 476.819 379.4 476.214 401.365C475.245 439.141 458.649 472.814 432.725 496.59C432.362 496.952 431.878 497.314 431.514 497.676C427.153 501.538 422.55 505.159 417.826 508.418C421.823 504.918 425.578 501.176 429.091 497.193C429.455 496.831 429.818 496.469 430.182 495.987C450.29 473.055 462.768 443.366 463.616 410.538C464.1 391.831 460.708 373.848 454.167 357.434C453.924 356.951 453.803 356.468 453.561 355.986C453.319 356.468 452.955 356.831 452.713 357.313C439.388 376.865 417.22 389.779 392.144 390.382C391.539 390.382 390.933 390.382 390.327 390.382C389.601 390.382 388.874 390.382 388.147 390.382C378.335 390.141 369.128 387.969 360.649 384.469C360.043 384.227 359.558 383.986 358.953 383.744C359.195 384.348 359.437 384.831 359.559 385.434C365.737 401.969 368.886 419.831 368.402 438.538C367.917 454.952 364.767 470.642 359.195 485.124C359.074 485.486 358.832 485.969 358.711 486.331C352.654 501.176 345.749 511.797 333.393 527.849C326.73 536.539 323.338 540.883 318.735 546.314C305.774 561.642 276.943 606.78 270.401 650.229C270.038 641.419 270.038 637.556 270.401 633.211C271.37 621.746 273.551 616.073 273.914 602.435C274.036 600.022 274.036 596.763 273.793 592.901C272.097 564.056 255.017 541.97 249.081 534.366C248.718 533.883 248.476 533.521 248.354 533.401C247.991 533.521 247.506 533.763 247.143 533.883C246.78 534.004 246.416 534.125 246.053 534.245C245.811 534.366 245.689 534.366 245.447 534.487C245.084 534.607 244.599 534.728 244.115 534.849C240.359 536.056 236.483 536.901 232.485 537.504C232.001 537.504 231.637 537.625 231.153 537.625C228.367 537.987 225.581 538.228 222.794 538.228C213.103 538.47 203.776 536.901 195.175 533.763C194.812 533.642 194.448 533.521 194.085 533.401C175.066 526.28 159.44 511.797 150.96 493.452C150.718 493.09 150.597 492.728 150.475 492.366C149.264 489.711 148.295 487.055 147.447 484.159C147.326 483.797 147.205 483.314 147.084 482.952C146.478 480.78 145.872 478.486 145.388 476.073C145.267 475.711 145.267 475.228 145.145 474.866C144.419 471.004 144.055 467.021 143.934 463.038C143.813 457.245 144.297 451.572 145.388 446.141C145.509 445.779 145.509 445.297 145.63 444.934C145.993 443.486 146.357 442.038 146.72 440.59C146.841 440.228 146.962 439.866 147.084 439.383C148.053 436.003 149.264 432.745 150.718 429.607C149.749 432.865 149.022 436.124 148.537 439.503C148.416 439.865 148.416 440.228 148.416 440.71C148.174 442.159 148.174 443.607 148.053 445.176C148.053 445.538 148.053 446.021 148.053 446.383C148.053 447.348 148.053 448.314 148.053 449.159C148.174 456.883 149.749 464.124 152.535 470.883C152.656 471.245 152.777 471.607 153.019 471.969C153.746 473.78 154.594 475.59 155.563 477.28C155.805 477.642 155.927 478.004 156.169 478.245C158.955 483.193 162.468 487.78 166.587 491.762C167.071 492.245 167.435 492.607 167.919 493.09C176.762 501.297 188.028 506.969 200.384 509.021C200.747 509.021 201.111 509.142 201.595 509.142C204.866 509.625 208.258 509.866 211.65 509.745C214.194 509.745 216.616 509.504 219.039 509.142C219.645 509.021 220.251 509.021 220.856 508.9C225.702 508.056 230.305 506.728 234.666 504.797C235.393 504.435 236.12 504.193 236.846 503.831C237.937 503.228 240.359 501.9 243.024 500.814C243.024 500.814 245.326 499.969 247.143 499.607C247.506 499.487 247.87 499.487 248.354 499.366C248.597 499.366 248.839 499.245 249.081 499.245H249.202L250.05 499.125L251.019 499.004H251.262L257.803 498.4L262.527 497.918L263.86 497.797L290.389 495.383L291.843 495.262H291.964L293.539 495.142L294.871 495.021L296.083 494.9L321.4 492.607H322.127C322.127 492.607 322.127 492.607 322.248 492.607C323.944 492.366 325.519 491.883 326.851 491.038C327.699 490.555 328.426 489.952 329.153 489.228C330.243 488.142 331.091 486.814 331.697 485.366L332.06 484.159L357.62 407.038C357.863 405.71 358.226 402.451 356.53 398.831C354.834 394.969 351.927 393.038 350.837 392.434H350.715L349.867 392.193H349.746C349.746 392.193 349.746 392.193 349.625 392.193L334.362 387.244L333.151 386.882L272.582 367.331L271.492 366.969L258.167 362.624L256.107 362.02L238.179 356.227L225.702 338.727L224.611 337.037L222.673 336.434L170.463 319.537L168.646 318.934L114.255 301.313L112.681 300.83C112.681 300.709 112.802 300.589 112.802 300.468C112.802 300.468 112.802 300.468 112.802 300.347C112.923 299.985 113.044 299.623 113.165 299.261C113.165 299.261 113.165 299.14 113.286 299.14C114.74 294.434 116.436 289.968 118.495 285.502C118.495 285.382 118.616 285.261 118.616 285.261C118.737 285.02 118.859 284.778 118.98 284.416C118.98 284.296 119.101 284.175 119.101 284.175C130.73 259.554 150.597 239.519 175.309 227.571C178.822 225.881 182.213 224.071 185.484 222.019C185.484 222.019 185.484 222.019 185.605 222.019C189.239 219.847 192.631 217.433 195.902 214.899C195.902 214.899 195.902 214.899 196.023 214.778C196.387 214.536 196.75 214.295 197.113 213.933C197.113 213.933 197.234 213.933 197.234 213.812C225.823 191.364 243.993 156.243 243.146 117.26C243.146 116.053 243.024 114.846 243.024 113.639C243.024 113.519 243.024 113.398 243.024 113.277C243.024 112.432 242.903 111.708 242.903 110.984C242.903 110.863 242.903 110.743 242.903 110.622C242.298 102.777 240.965 95.1736 238.906 87.9322C238.906 87.8115 238.785 87.6908 238.785 87.5701C238.542 86.6046 238.3 85.7598 237.937 84.7943C237.815 85.7598 237.815 86.6046 237.694 87.5701C237.694 87.6908 237.694 87.8115 237.694 87.9322C237.21 91.915 236.604 95.8978 235.877 99.7599C235.756 100.363 235.635 100.846 235.514 101.329C224.248 154.795 183.183 197.76 130.124 211.399C129.882 211.399 129.761 211.519 129.519 211.519C125.521 212.485 121.766 213.692 118.011 215.14C106.745 219.364 96.2059 225.157 86.8783 232.278C86.8783 232.278 86.8783 232.278 86.7572 232.399C86.3938 232.64 86.0304 232.881 85.7881 233.243C85.7881 233.243 85.6669 233.243 85.6669 233.364C74.7646 241.933 65.437 252.313 58.0476 264.02C57.8053 264.382 57.5631 264.744 57.4419 265.106C54.5346 269.933 51.8696 274.882 49.6891 280.071C49.568 280.433 49.3257 280.796 49.2046 281.158C46.903 286.589 45.0859 292.14 43.5111 297.813C43.39 298.175 43.2689 298.537 43.2689 299.02C42.6632 301.675 42.0575 304.33 41.5729 307.106C41.4518 307.468 41.4518 307.951 41.3307 308.313C40.725 312.175 40.2404 316.037 39.9982 320.02C31.3974 324.727 23.1601 330.158 15.5284 336.192V127.081C15.5284 115.031 20.7197 103.501 30.3373 96.2416C72.7673 64.2134 157.69 14.9145 272.34 14.9145H272.461C387.047 14.9145 471.94 64.1593 514.973 96.1889C524.775 103.485 530.12 115.157 530.12 127.377V155.881ZM402.562 244.106C401.593 247.847 398.807 250.864 395.173 252.071C394.81 252.192 394.325 252.313 393.84 252.433C393.598 252.433 393.235 252.554 392.992 252.554C392.387 252.554 391.902 252.554 391.297 252.675C389.722 252.795 388.147 252.916 386.572 253.037C381.606 253.519 376.76 254.244 371.915 255.209C372.52 250.864 375.549 247.244 379.546 245.916C380.031 245.795 380.394 245.675 380.879 245.554C381.242 245.433 381.727 245.433 382.09 245.312H382.938L388.147 244.95L402.562 244.106ZM182.456 379.762L181.729 379.52L181.123 379.279C177.247 377.71 174.582 374.089 174.461 369.744C174.461 369.141 174.461 368.537 174.582 367.934L190.572 372.882L194.327 374.089H194.569L195.66 374.451L196.992 374.813C200.021 376.744 202.201 380.003 202.322 383.865C202.322 384.469 202.322 385.072 202.201 385.676C202.08 385.676 201.959 385.675 201.838 385.796L186.09 380.848L182.213 379.641C182.698 379.762 182.577 379.762 182.456 379.762Z" fill="#FFCE78"/>
<path d="M252.635 140.494C252.283 139.439 251.812 138.383 251.46 137.445C251.46 137.914 251.46 138.501 251.46 138.97C251.46 139.556 251.46 140.142 251.46 140.728C251.812 169.339 244.642 196.307 231.828 219.875C231.828 219.875 231.711 219.992 231.711 220.11C231.593 220.461 231.358 220.696 231.241 221.048C231.241 221.048 231.123 221.165 231.123 221.282C229.125 224.917 226.891 228.552 224.658 232.07C224.423 232.421 224.187 232.656 224.07 233.008C205.262 261.031 178.107 282.958 146.015 295.152C145.427 295.387 144.84 295.621 144.252 295.739L146.015 296.325L191.508 311.099L193.036 311.568C193.506 311.334 193.859 311.099 194.329 310.747C217.017 296.794 235.473 276.626 247.345 252.706C247.58 252.355 247.698 252.003 247.933 251.534C251.93 243.209 255.221 234.415 257.572 225.269C257.572 225.152 257.572 225.034 257.69 225.034C257.807 224.8 257.807 224.448 257.925 224.214C257.925 224.096 257.925 223.979 258.043 223.979C260.864 212.371 262.274 200.059 262.039 187.513C261.334 170.863 258.16 155.151 252.635 140.494Z" fill="#FFCE78"/>
</g>
<path d="M626.26 339.799V114.594H709.264C721.597 114.594 732.696 117.704 742.562 123.924C752.536 130.144 760.471 138.455 766.37 148.857C772.268 159.153 775.217 170.52 775.217 182.96C775.217 195.614 772.214 207.143 766.209 217.545C760.203 227.84 752.16 236.044 742.08 242.157C732.106 248.269 721.168 251.326 709.264 251.326H670.658V339.799H626.26ZM670.658 206.928H704.277C709.21 206.928 713.661 205.748 717.629 203.389C721.597 200.923 724.76 197.652 727.12 193.577C729.586 189.394 730.819 184.783 730.819 179.743C730.819 174.81 729.586 170.306 727.12 166.23C724.76 162.048 721.597 158.724 717.629 156.257C713.661 153.791 709.21 152.557 704.277 152.557H670.658V206.928ZM799.22 339.799L799.059 178.938H843.457L843.618 190.842C848.98 185.695 855.253 181.673 862.438 178.778C869.731 175.882 877.398 174.434 885.441 174.434C891.34 174.434 897.238 175.292 903.136 177.008L885.602 221.888C881.742 220.28 877.827 219.475 873.86 219.475C868.283 219.475 863.189 220.816 858.578 223.497C853.966 226.178 850.32 229.824 847.639 234.435C844.958 238.939 843.618 244.033 843.618 249.717V339.799H799.22ZM916.098 280.924V178.938H960.495V268.699C960.495 274.382 961.836 279.53 964.517 284.141C967.305 288.645 971.005 292.238 975.616 294.919C980.228 297.6 985.268 298.94 990.737 298.94C996.314 298.94 1001.41 297.6 1006.02 294.919C1010.63 292.238 1014.28 288.645 1016.96 284.141C1019.64 279.53 1020.98 274.382 1020.98 268.699V178.938H1065.38L1065.54 339.799H1021.14L1020.98 327.573C1015.62 332.721 1009.29 336.742 1002 339.638C994.812 342.533 987.198 343.981 979.155 343.981C967.573 343.981 957.01 341.139 947.466 335.456C937.921 329.772 930.307 322.211 924.624 312.774C918.94 303.23 916.098 292.613 916.098 280.924ZM1212.94 98.5081H1257.33V339.799H1212.94V322.748C1208 328.968 1201.89 334.061 1194.6 338.029C1187.31 341.997 1178.99 343.981 1169.66 343.981C1157.98 343.981 1147.04 341.783 1136.85 337.386C1126.66 332.989 1117.65 326.93 1109.82 319.209C1102.1 311.38 1096.04 302.372 1091.65 292.184C1087.25 281.996 1085.05 271.058 1085.05 259.369C1085.05 247.679 1087.25 236.741 1091.65 226.553C1096.04 216.365 1102.1 207.411 1109.82 199.689C1117.65 191.861 1126.66 185.748 1136.85 181.351C1147.04 176.954 1157.98 174.756 1169.66 174.756C1178.99 174.756 1187.31 176.74 1194.6 180.708C1201.89 184.568 1208 189.662 1212.94 195.99V98.5081ZM1170.31 301.353C1177.6 301.353 1184.2 299.476 1190.09 295.723C1195.99 291.97 1200.66 286.929 1204.09 280.602C1207.52 274.168 1209.24 267.09 1209.24 259.369C1209.24 251.54 1207.52 244.462 1204.09 238.135C1200.66 231.808 1195.99 226.768 1190.09 223.014C1184.2 219.261 1177.6 217.384 1170.31 217.384C1162.91 217.384 1156.21 219.261 1150.2 223.014C1144.19 226.768 1139.42 231.861 1135.88 238.296C1132.34 244.623 1130.58 251.647 1130.58 259.369C1130.58 267.09 1132.34 274.168 1135.88 280.602C1139.53 286.929 1144.36 291.97 1150.36 295.723C1156.37 299.476 1163.02 301.353 1170.31 301.353ZM1363.73 343.981C1348.93 343.981 1335.42 340.174 1323.19 332.56C1311.07 324.946 1301.37 314.705 1294.08 301.836C1286.89 288.967 1283.3 274.758 1283.3 259.208C1283.3 247.519 1285.39 236.58 1289.57 226.392C1293.76 216.097 1299.49 207.089 1306.79 199.368C1314.18 191.539 1322.76 185.426 1332.52 181.03C1342.28 176.633 1352.68 174.434 1363.73 174.434C1376.49 174.434 1388.13 177.169 1398.64 182.638C1409.25 188.107 1418.21 195.561 1425.5 204.998C1432.9 214.435 1438.15 225.105 1441.26 237.009C1444.48 248.913 1445.02 261.299 1442.87 274.168H1331.24C1332.63 278.886 1334.78 283.176 1337.67 287.037C1340.67 290.79 1344.32 293.793 1348.61 296.045C1353.01 298.297 1358.05 299.476 1363.73 299.584C1369.31 299.691 1374.45 298.404 1379.17 295.723C1383.89 293.042 1387.91 289.45 1391.24 284.945L1436.6 295.401C1430.06 309.664 1420.3 321.353 1407.32 330.469C1394.35 339.477 1379.82 343.981 1363.73 343.981ZM1329.63 241.352H1397.99C1396.6 235.99 1394.24 231.164 1390.92 226.875C1387.59 222.585 1383.57 219.207 1378.85 216.741C1374.24 214.274 1369.2 213.041 1363.73 213.041C1358.37 213.041 1353.33 214.274 1348.61 216.741C1344 219.207 1340.03 222.585 1336.71 226.875C1333.49 231.057 1331.13 235.883 1329.63 241.352ZM1618.02 237.492V339.799H1573.62V249.717C1573.62 244.033 1572.23 238.939 1569.44 234.435C1566.76 229.824 1563.11 226.178 1558.5 223.497C1554 220.816 1548.95 219.475 1543.38 219.475C1537.8 219.475 1532.71 220.816 1528.1 223.497C1523.49 226.178 1519.84 229.824 1517.16 234.435C1514.48 238.939 1513.14 244.033 1513.14 249.717V339.799H1468.74L1468.58 178.938H1512.98L1513.14 190.842C1518.5 185.695 1524.77 181.673 1531.96 178.778C1539.25 175.882 1546.92 174.434 1554.96 174.434C1566.65 174.434 1577.21 177.276 1586.65 182.96C1596.19 188.644 1603.81 196.258 1609.49 205.802C1615.18 215.239 1618.02 225.802 1618.02 237.492ZM1737.68 223.336H1708.73V339.799H1664.33V223.336H1642.13V178.938H1664.33V128.428H1708.73V178.938H1737.68V223.336ZM631.086 609.799V384.594H675.483V609.799H631.086ZM868.383 507.492V609.799H823.985V519.717C823.985 514.033 822.591 508.939 819.803 504.435C817.122 499.824 813.476 496.178 808.864 493.497C804.36 490.816 799.32 489.475 793.743 489.475C788.167 489.475 783.073 490.816 778.462 493.497C773.85 496.178 770.204 499.824 767.523 504.435C764.842 508.939 763.502 514.033 763.502 519.717V609.799H719.104L718.943 448.938H763.341L763.502 460.842C768.864 455.695 775.137 451.673 782.322 448.778C789.615 445.882 797.282 444.434 805.325 444.434C817.015 444.434 827.578 447.276 837.015 452.96C846.559 458.644 854.173 466.258 859.857 475.802C865.541 485.239 868.383 495.802 868.383 507.492ZM998.386 609.799H940.958L882.405 448.938H929.698L969.592 558.806L1009.48 448.938H1056.94L998.386 609.799ZM1144.43 613.981C1129.63 613.981 1116.12 610.174 1103.9 602.56C1091.78 594.946 1082.07 584.705 1074.78 571.836C1067.59 558.967 1064 544.758 1064 529.208C1064 517.519 1066.09 506.58 1070.28 496.392C1074.46 486.097 1080.19 477.089 1087.49 469.368C1094.89 461.539 1103.47 455.426 1113.22 451.03C1122.98 446.633 1133.39 444.434 1144.43 444.434C1157.19 444.434 1168.83 447.169 1179.34 452.638C1189.96 458.107 1198.91 465.561 1206.2 474.998C1213.6 484.435 1218.86 495.105 1221.97 507.009C1225.18 518.913 1225.72 531.299 1223.58 544.168H1111.94C1113.33 548.886 1115.48 553.176 1118.37 557.037C1121.38 560.79 1125.02 563.793 1129.31 566.045C1133.71 568.297 1138.75 569.476 1144.43 569.584C1150.01 569.691 1155.16 568.404 1159.87 565.723C1164.59 563.042 1168.61 559.45 1171.94 554.945L1217.3 565.401C1210.76 579.664 1201 591.353 1188.03 600.469C1175.05 609.477 1160.52 613.981 1144.43 613.981ZM1110.33 511.352H1178.7C1177.3 505.99 1174.94 501.164 1171.62 496.875C1168.29 492.585 1164.27 489.207 1159.55 486.741C1154.94 484.274 1149.9 483.041 1144.43 483.041C1139.07 483.041 1134.03 484.274 1129.31 486.741C1124.7 489.207 1120.73 492.585 1117.41 496.875C1114.19 501.057 1111.83 505.883 1110.33 511.352ZM1297.35 612.694C1289.09 612.051 1281.15 610.335 1273.54 607.547C1265.93 604.651 1259.12 600.791 1253.11 595.965C1247.21 591.032 1242.6 585.134 1239.28 578.27L1276.6 562.184C1277.78 563.9 1279.55 565.777 1281.9 567.814C1284.26 569.745 1287.11 571.46 1290.43 572.962C1293.86 574.463 1297.83 575.214 1302.33 575.214C1305.66 575.214 1308.88 574.838 1311.99 574.088C1315.1 573.23 1317.62 571.889 1319.55 570.066C1321.48 568.136 1322.44 565.616 1322.44 562.506C1322.44 559.074 1321.21 556.447 1318.74 554.624C1316.28 552.801 1313.27 551.46 1309.73 550.602C1306.3 549.637 1302.98 548.833 1299.76 548.189C1289.89 546.473 1280.56 543.417 1271.77 539.02C1263.08 534.516 1256.01 528.725 1250.54 521.647C1245.07 514.569 1242.33 506.097 1242.33 496.231C1242.33 485.4 1245.17 476.07 1250.86 468.242C1256.54 460.306 1263.94 454.193 1273.06 449.904C1282.17 445.614 1292.04 443.469 1302.66 443.469C1315.2 443.469 1326.84 446.096 1337.56 451.351C1348.29 456.606 1356.92 464.006 1363.46 473.55L1328.39 494.301C1327 492.263 1325.18 490.333 1322.92 488.51C1320.78 486.58 1318.26 484.971 1315.36 483.684C1312.58 482.29 1309.57 481.486 1306.36 481.271C1302.17 480.95 1298.37 481.218 1294.93 482.076C1291.5 482.826 1288.77 484.274 1286.73 486.419C1284.8 488.564 1283.84 491.459 1283.84 495.105C1283.84 498.644 1285.39 501.272 1288.5 502.987C1291.61 504.596 1295.2 505.829 1299.28 506.687C1303.35 507.438 1306.95 508.349 1310.06 509.422C1319.39 512.425 1328.13 516.285 1336.28 521.004C1344.53 525.615 1351.18 531.299 1356.22 538.055C1361.26 544.811 1363.62 552.747 1363.3 561.862C1363.3 572.479 1360.14 581.809 1353.81 589.852C1347.48 597.788 1339.28 603.847 1329.2 608.029C1319.22 612.104 1308.61 613.659 1297.35 612.694ZM1478.17 493.336H1449.21V609.799H1404.82V493.336H1382.62V448.938H1404.82V398.428H1449.21V448.938H1478.17V493.336ZM1574.55 613.981C1559.75 613.981 1546.23 610.174 1534.01 602.56C1521.89 594.946 1512.18 584.758 1504.89 571.997C1497.71 559.128 1494.11 544.918 1494.11 529.369C1494.11 517.572 1496.21 506.58 1500.39 496.392C1504.57 486.097 1510.31 477.089 1517.6 469.368C1525 461.539 1533.58 455.426 1543.34 451.03C1553.1 446.633 1563.5 444.434 1574.55 444.434C1589.34 444.434 1602.8 448.241 1614.92 455.855C1627.15 463.469 1636.85 473.711 1644.04 486.58C1651.33 499.449 1654.98 513.712 1654.98 529.369C1654.98 541.058 1652.88 551.996 1648.7 562.184C1644.52 572.372 1638.73 581.38 1631.33 589.209C1624.04 596.93 1615.51 602.989 1605.75 607.386C1596.1 611.783 1585.7 613.981 1574.55 613.981ZM1574.55 569.584C1581.41 569.584 1587.57 567.761 1593.04 564.114C1598.51 560.361 1602.8 555.428 1605.91 549.315C1609.02 543.203 1610.58 536.554 1610.58 529.369C1610.58 521.969 1608.92 515.213 1605.59 509.1C1602.37 502.88 1598.03 497.947 1592.56 494.301C1587.09 490.655 1581.09 488.832 1574.55 488.832C1567.79 488.832 1561.68 490.708 1556.21 494.462C1550.74 498.215 1546.39 503.148 1543.18 509.261C1540.07 515.374 1538.51 522.076 1538.51 529.369C1538.51 536.983 1540.12 543.846 1543.34 549.959C1546.66 555.964 1551.06 560.736 1556.53 564.275C1562 567.814 1568 569.584 1574.55 569.584ZM1679.55 609.799L1679.39 448.938H1723.79L1723.95 460.842C1729.31 455.695 1735.59 451.673 1742.77 448.778C1750.06 445.882 1757.73 444.434 1765.78 444.434C1771.67 444.434 1777.57 445.292 1783.47 447.008L1765.94 491.888C1762.08 490.28 1758.16 489.475 1754.19 489.475C1748.62 489.475 1743.52 490.816 1738.91 493.497C1734.3 496.178 1730.65 499.824 1727.97 504.435C1725.29 508.939 1723.95 514.033 1723.95 519.717V609.799H1679.55Z" fill="#F9F9F9"/>
<defs>
<clipPath id="clip0_184_335">
<rect width="544.621" height="722.736" fill="white" transform="translate(0.388428 0.431641)"/>
</clipPath>
</defs>
</svg>
